<svg data-v-423bf9ae="" xmlns="http://www.w3.org/2000/svg" viewBox="0 0 301.65305815612913 60" class="font"><!----><!----><!----><g data-v-423bf9ae="" id="653c5f6a-dfde-4f4d-b597-e0cda1d55ee0" fill="#ED8787" transform="matrix(6.1224488604322,0,0,6.1224488604322,-5.288702311645466e-7,-4.285714427340487)"><path d="M3.91 4.61L3.91 5.59L3.91 9.39L3.91 9.39Q3.91 9.81 3.64 10.12L3.64 10.12L3.64 10.12Q3.37 10.43 2.97 10.50L2.97 10.50L0.94 10.50L0.94 10.50Q0.53 10.43 0.27 10.12L0.27 10.12L0.27 10.12Q0 9.81 0 9.39L0 9.39L0 1.81L0 1.81Q0 1.39 0.27 1.08L0.27 1.08L0.27 1.08Q0.53 0.77 0.94 0.70L0.94 0.70L2.97 0.70L2.97 0.70Q3.37 0.77 3.64 1.08L3.64 1.08L3.64 1.08Q3.91 1.39 3.91 1.81L3.91 1.81L3.91 2.83L2.93 2.83L2.93 1.81L2.93 1.81Q2.93 1.67 2.79 1.67L2.79 1.67L1.12 1.67L1.12 1.67Q0.98 1.67 0.98 1.81L0.98 1.81L0.98 9.39L0.98 9.39Q0.98 9.53 1.12 9.53L1.12 9.53L2.79 9.53L2.79 9.53Q2.93 9.53 2.93 9.39L2.93 9.39L2.93 5.59L1.76 5.59L1.76 4.61L3.91 4.61ZM8.16 10.50L6.92 2.67L6.20 7.20L6.92 7.20L6.92 8.18L6.05 8.18L5.67 10.50L4.68 10.50L5.05 8.18L4.68 8.18L4.68 7.20L5.21 7.20L6.24 0.70L7.59 0.70L9.16 10.50L8.16 10.50ZM9.70 0.70L12.49 0.70L12.49 0.70Q12.95 0.70 13.28 1.04L13.28 1.04L13.28 1.04Q13.61 1.37 13.61 1.83L13.61 1.83L13.61 9.39L13.61 9.39Q13.61 9.84 13.28 10.17L13.28 10.17L13.28 10.17Q12.95 10.50 12.49 10.50L12.49 10.50L9.70 10.50L9.70 4.62L10.68 4.62L9.70 1.68L9.70 0.70ZM12.63 9.39L12.63 1.83L12.63 1.83Q12.63 1.69 12.49 1.69L12.49 1.69L10.68 1.69L10.68 9.52L12.49 9.52L12.49 9.52Q12.63 9.52 12.63 9.39L12.63 9.39ZM18.42 4.61L18.42 5.59L18.42 9.39L18.42 9.39Q18.42 9.81 18.16 10.12L18.16 10.12L18.16 10.12Q17.89 10.43 17.49 10.50L17.49 10.50L15.46 10.50L15.46 10.50Q15.05 10.43 14.78 10.12L14.78 10.12L14.78 10.12Q14.52 9.81 14.52 9.39L14.52 9.39L14.52 1.81L14.52 1.81Q14.52 1.39 14.78 1.08L14.78 1.08L14.78 1.08Q15.05 0.77 15.46 0.70L15.46 0.70L17.49 0.70L17.49 0.70Q17.89 0.77 18.16 1.08L18.16 1.08L18.16 1.08Q18.42 1.39 18.42 1.81L18.42 1.81L18.42 2.83L17.44 2.83L17.44 1.81L17.44 1.81Q17.44 1.67 17.30 1.67L17.30 1.67L15.64 1.67L15.64 1.67Q15.50 1.67 15.50 1.81L15.50 1.81L15.50 9.39L15.50 9.39Q15.50 9.53 15.64 9.53L15.64 9.53L17.30 9.53L17.30 9.53Q17.44 9.53 17.44 9.39L17.44 9.39L17.44 5.59L16.28 5.59L16.28 4.61L18.42 4.61ZM22.86 1.68L20.31 1.68L20.31 4.62L22.36 4.62L22.36 5.60L20.31 5.60L20.31 9.52L22.86 9.52L22.86 10.50L19.33 10.50L19.33 4.62L20.31 4.62L19.33 1.68L19.33 0.70L22.86 0.70L22.86 1.68ZM27.50 0.70L27.50 1.68L26.12 1.68L26.12 10.50L25.14 10.50L25.14 1.68L23.77 1.68L23.77 0.70L27.50 0.70ZM31.89 0.70L32.89 0.70L31.32 10.50L29.97 10.50L28.41 0.70L29.40 0.70L30.65 8.54L31.89 0.70ZM34.71 0.70L34.71 10.50L33.73 10.50L33.73 0.70L34.71 0.70ZM39.38 2.86L38.40 2.86L38.40 1.81L38.40 1.81Q38.40 1.67 38.26 1.67L38.26 1.67L36.74 1.67L36.74 1.67Q36.60 1.67 36.60 1.81L36.60 1.81L36.60 4.47L36.60 4.47Q36.60 4.56 36.68 4.59L36.68 4.59L38.26 4.59L38.26 4.59Q38.74 4.59 39.06 4.92L39.06 4.92L39.06 4.92Q39.38 5.25 39.38 5.71L39.38 5.71L39.38 9.39L39.38 9.39Q39.38 9.81 39.12 10.12L39.12 10.12L39.12 10.12Q38.85 10.43 38.44 10.50L38.44 10.50L36.55 10.50L36.55 10.50Q36.15 10.43 35.88 10.12L35.88 10.12L35.88 10.12Q35.62 9.81 35.62 9.39L35.62 9.39L35.62 8.34L36.60 8.34L36.60 9.39L36.60 9.39Q36.60 9.53 36.74 9.53L36.74 9.53L38.26 9.53L38.26 9.53Q38.40 9.53 38.40 9.39L38.40 9.39L38.40 5.71L38.40 5.71Q38.40 5.61 38.32 5.59L38.32 5.59L36.74 5.59L36.74 5.59Q36.27 5.59 35.95 5.26L35.95 5.26L35.95 5.26Q35.62 4.93 35.62 4.47L35.62 4.47L35.62 1.81L35.62 1.81Q35.62 1.39 35.88 1.08L35.88 1.08L35.88 1.08Q36.15 0.77 36.55 0.70L36.55 0.70L38.44 0.70L38.44 0.70Q38.85 0.77 39.12 1.08L39.12 1.08L39.12 1.08Q39.38 1.39 39.38 1.81L39.38 1.81L39.38 2.86ZM44.02 0.70L44.02 1.68L42.64 1.68L42.64 10.50L41.66 10.50L41.66 1.68L40.29 1.68L40.29 0.70L44.02 0.70ZM48.27 10.50L47.03 2.67L46.31 7.20L47.03 7.20L47.03 8.18L46.16 8.18L45.78 10.50L44.79 10.50L45.16 8.18L44.79 8.18L44.79 7.20L45.32 7.20L46.35 0.70L47.70 0.70L49.27 10.50L48.27 10.50Z"></path></g><!----><!----></svg>